<svg width="16" height="16" viewBox="0 0 16 16" fill="none" xmlns="http://www.w3.org/2000/svg">
<path d="M13.3444 6.95599C15.7535 7.04123 16.1118 7.61926 15.4991 9.97486C15.4788 10.0526 15.2044 10.9308 15.1274 11.044C15.4225 10.0755 15.4481 9.72329 14.0499 9.67297C13.0274 9.63618 11.1407 10.3069 10.8687 10.4403C10.5472 10.5979 8.16205 11.6856 5.8146 12.3648C4.37619 12.781 2.90274 12.5535 2.44094 12.4654C1.97915 12.3774 1.09408 12.1761 0.529632 10.5786C0.0392216 9.19069 0.42701 8.70861 0.555287 8.40253C0.486874 8.70861 0.391096 9.67297 0.91446 9.87423C1.56867 10.1258 2.44094 10.1006 3.05667 10.0881C4.81253 10.0522 6.53427 9.41814 8.09791 8.69184C9.44964 8.06398 11.6055 6.99622 13.3444 6.95599Z" fill="black"/>
<path d="M7.55918 13.283C8.16927 13.0229 16.9112 8.79162 15.1236 12.2941C13.6754 14.5222 11.1332 16 8.23902 16C5.87463 16 3.74518 15.0137 2.25515 13.4378C1.80645 12.8172 1.98896 12.4862 2.10743 12.3773C2.10743 12.3773 1.69695 12.8427 2.86426 13.6855C4.06302 14.5509 6.96907 13.5346 7.55918 13.283Z" fill="black"/>
<path d="M11.9975 3.13215C12.5748 3.08184 12.7205 3.05716 13.2803 3.13215C14.9885 3.361 15.9998 4.8747 15.9997 6.55347C16.0125 6.86795 15.6277 7.45601 15.5379 7.61008C15.5251 7.45913 16.6026 6.30311 15.1146 6.03782C14.1269 5.86172 13.6266 5.84914 12.3952 5.96235C11.1637 6.07556 9.90663 6.59128 9.72704 6.65417C9.54744 6.71707 8.05944 7.4089 6.27642 8.1133C4.49338 8.8177 2.736 8.85544 2.33835 8.84286C1.06842 8.80269 0.343798 8.60385 0.0550357 7.54726C-0.268119 6.36481 0.917822 4.30501 1.3763 3.63523C1.16861 3.96789 0.543188 4.95598 0.799011 5.52202C0.994581 6.04388 1.90023 6.26718 2.99253 6.30192C5.36564 6.37739 7.81573 4.80509 8.23904 4.56609C8.66235 4.3271 9.8938 3.69817 10.1504 3.61012C10.4069 3.52207 11.4203 3.18247 11.9975 3.13215Z" fill="black"/>
<path d="M8.13336 0C10.0543 0 11.8202 0.651055 13.2141 1.7404C13.9959 2.53342 13.1795 3.03802 13.0503 3.11048C13.0392 3.11665 13.0265 3.11817 13.0146 3.1137C12.8611 3.05573 13.6182 2.95669 13.4569 2.239C13.3736 1.86821 11.4844 1.8457 10.5834 2.07548C6.04549 3.2327 5.71103 4.91465 2.47943 4.61889C2.15874 4.56604 1.10688 4.25158 1.36343 3.66038C1.50719 3.3291 1.90473 2.7569 2.57859 2.14073C4.03506 0.812429 5.98746 1.26046e-06 8.13336 0Z" fill="black"/>
</svg>
